<svg width="40" height="40" viewBox="0 0 40 40" fill="none" xmlns="http://www.w3.org/2000/svg">
<path d="M0.000144935 6.05826C-0.00670921 5.63544 0.230032 5.24492 0.60605 5.05144C14.0729 -1.87792 27.3886 -1.49588 39.3874 5.07927C39.7613 5.28415 39.9859 5.68555 39.9645 6.11135C39.7132 11.1166 38.7407 15.7322 37.1545 19.9102C36.9888 20.3466 36.5676 20.6298 36.1008 20.6298H20.1831C19.6734 20.6298 19.2602 20.2167 19.2602 19.707C19.2601 19.3187 18.9915 19.2544 18.7836 19.416L14.4418 22.913C14.2033 23.1074 14.251 23.3503 14.4418 23.496L18.7836 26.8964C18.9745 27.0419 19.2602 26.8962 19.2602 26.5078C19.2602 26.1054 19.5864 25.7792 19.9887 25.7792H32.3792C33.2603 25.7792 33.8049 26.7317 33.3238 27.4699C30.0467 32.499 25.6973 36.606 20.5632 39.655C20.2005 39.8704 19.7469 39.8603 19.3928 39.6312C10.7504 34.0389 4.63191 26.3745 1.78885 17.3093C1.56354 16.5909 2.11082 15.8749 2.86374 15.8749H20.0004C20.4028 15.8749 20.729 16.2011 20.729 16.6035C20.7291 16.9919 21.0157 17.1379 21.2065 16.9921L25.5473 13.5917C25.7382 13.446 25.7859 13.2031 25.5473 13.0087L21.2065 9.51069C20.9986 9.34886 20.729 9.41408 20.729 9.80268C20.729 10.3124 20.3158 10.7255 19.8061 10.7255H1.34314C0.769362 10.7255 0.282752 10.3003 0.222404 9.72966C0.0948949 8.52404 0.0202715 7.29983 0.000144935 6.05826Z" fill="#362FF6"/>
</svg>
