<svg width="156" height="42" viewBox="0 0 156 42" fill="none" xmlns="http://www.w3.org/2000/svg">
<path d="M13.8907 19.3374L0.127441 34.2751C0.128734 34.2777 0.128734 34.2817 0.130027 34.2843C0.552735 35.9063 2.00054 37.1 3.71982 37.1C4.40752 37.1 5.05257 36.9097 5.60584 36.5766L5.64979 36.5501L21.1413 27.409L13.8907 19.3374Z" fill="#EA4335"/>
<path d="M27.813 16.7937L27.8001 16.7845L21.1117 12.82L13.5767 19.6768L21.1389 27.4074L27.791 23.4826C28.957 22.8375 29.7494 21.5804 29.7494 20.1316C29.7494 18.6907 28.9687 17.4401 27.813 16.7937Z" fill="#FBBC04"/>
<path d="M0.126683 5.92382C0.0439513 6.2358 0 6.56363 0 6.90204V33.2981C0 33.6365 0.0439513 33.9644 0.127976 34.275L14.363 19.7194L0.126683 5.92382Z" fill="#4285F4"/>
<path d="M13.9908 20.1L21.1135 12.8175L5.64008 3.64341C5.07777 3.29839 4.42108 3.1001 3.71915 3.1001C1.99988 3.1001 0.549488 4.29643 0.12678 5.91975C0.12678 5.92107 0.125488 5.92239 0.125488 5.92372L13.9908 20.1Z" fill="#34A853"/>
<path d="M44.1404 11.112C43.6028 11.112 43.0951 11.0075 42.6172 10.7984C42.1393 10.5893 41.7212 10.3019 41.3628 9.936C41.0044 9.56267 40.7207 9.13333 40.5116 8.648C40.31 8.1552 40.2092 7.6288 40.2092 7.0688C40.2092 6.5088 40.31 5.98613 40.5116 5.5008C40.7207 5.01547 41.0044 4.58987 41.3628 4.224C41.7287 3.85067 42.1543 3.5632 42.6396 3.3616C43.1324 3.15253 43.6625 3.048 44.23 3.048C44.8497 3.048 45.4247 3.16747 45.9548 3.4064C46.4849 3.64533 46.9292 3.98507 47.2876 4.4256L46.414 5.2992C46.1825 4.97067 45.8727 4.72053 45.4844 4.5488C45.0961 4.3696 44.678 4.28 44.23 4.28C43.6924 4.28 43.2183 4.39947 42.8076 4.6384C42.4044 4.86987 42.0908 5.19467 41.8668 5.6128C41.6428 6.03093 41.5308 6.51627 41.5308 7.0688C41.5308 7.62133 41.6428 8.1104 41.8668 8.536C42.0983 8.95413 42.4081 9.28267 42.7964 9.5216C43.1847 9.76053 43.6252 9.88 44.118 9.88C44.6407 9.88 45.0887 9.78667 45.462 9.6C45.8428 9.40587 46.134 9.12213 46.3356 8.7488C46.5372 8.368 46.638 7.90133 46.638 7.3488L47.4444 7.9312H44.0956V6.7552H47.9708V6.9344C47.9708 7.86773 47.8028 8.64427 47.4668 9.264C47.1383 9.88373 46.6865 10.3467 46.1116 10.6528C45.5367 10.9589 44.8796 11.112 44.1404 11.112ZM51.5824 11.112C51.0448 11.112 50.5594 10.9925 50.1264 10.7536C49.7008 10.5072 49.361 10.1712 49.1072 9.7456C48.8608 9.32 48.7376 8.84213 48.7376 8.312C48.7376 7.78187 48.8608 7.30773 49.1072 6.8896C49.3536 6.464 49.6858 6.128 50.104 5.8816C50.5296 5.6352 51 5.512 51.5152 5.512C52.0154 5.512 52.456 5.62773 52.8368 5.8592C53.225 6.09067 53.5274 6.408 53.744 6.8112C53.968 7.2144 54.08 7.6736 54.08 8.1888C54.08 8.2784 54.0725 8.37173 54.0576 8.4688C54.0501 8.5584 54.0352 8.6592 54.0128 8.7712H49.6V7.7632H53.3744L52.9152 8.1664C52.9002 7.83787 52.8368 7.5616 52.7248 7.3376C52.6128 7.1136 52.4522 6.94187 52.2432 6.8224C52.0416 6.70293 51.7914 6.6432 51.4928 6.6432C51.1792 6.6432 50.9066 6.7104 50.6752 6.8448C50.4437 6.9792 50.2645 7.1696 50.1376 7.416C50.0106 7.65493 49.9472 7.9424 49.9472 8.2784C49.9472 8.6144 50.0144 8.90933 50.1488 9.1632C50.2832 9.41707 50.4736 9.61493 50.72 9.7568C50.9664 9.8912 51.2501 9.9584 51.5712 9.9584C51.8474 9.9584 52.1013 9.90987 52.3328 9.8128C52.5717 9.71573 52.7733 9.57387 52.9376 9.3872L53.7216 10.1824C53.4602 10.4885 53.1429 10.72 52.7696 10.8768C52.3962 11.0336 52.0005 11.112 51.5824 11.112ZM55.743 11V3.384H56.975V11H55.743ZM54.455 6.744V5.624H58.263V6.744H54.455ZM61.4116 11V5.624H62.6436V11H61.4116ZM62.0276 4.6384C61.8185 4.6384 61.6431 4.56747 61.5012 4.4256C61.3668 4.28373 61.2996 4.10827 61.2996 3.8992C61.2996 3.69013 61.3668 3.51467 61.5012 3.3728C61.6431 3.23093 61.8185 3.16 62.0276 3.16C62.2441 3.16 62.4196 3.23093 62.554 3.3728C62.6884 3.51467 62.7556 3.69013 62.7556 3.8992C62.7556 4.10827 62.6884 4.28373 62.554 4.4256C62.4196 4.56747 62.2441 4.6384 62.0276 4.6384ZM64.843 11V3.384H66.075V11H64.843ZM63.555 6.744V5.624H67.363V6.744H63.555ZM72.9644 11.112C72.4417 11.112 71.9676 10.9888 71.542 10.7424C71.1164 10.4885 70.7767 10.1488 70.5228 9.7232C70.2764 9.2976 70.1532 8.82347 70.1532 8.3008C70.1532 7.77813 70.2764 7.30773 70.5228 6.8896C70.7767 6.47147 71.1164 6.1392 71.542 5.8928C71.9676 5.63893 72.4417 5.512 72.9644 5.512C73.4945 5.512 73.9724 5.6352 74.398 5.8816C74.8236 6.128 75.1596 6.464 75.406 6.8896C75.6599 7.30773 75.7868 7.77813 75.7868 8.3008C75.7868 8.82347 75.6599 9.2976 75.406 9.7232C75.1596 10.1488 74.8236 10.4885 74.398 10.7424C73.9724 10.9888 73.4945 11.112 72.9644 11.112ZM72.9644 9.9248C73.2705 9.9248 73.5393 9.8576 73.7708 9.7232C74.0097 9.58133 74.1927 9.3872 74.3196 9.1408C74.454 8.8944 74.5212 8.6144 74.5212 8.3008C74.5212 7.9872 74.454 7.71093 74.3196 7.472C74.1852 7.23307 74.0023 7.0464 73.7708 6.912C73.5393 6.77013 73.2705 6.6992 72.9644 6.6992C72.6657 6.6992 72.3969 6.77013 72.158 6.912C71.9265 7.0464 71.7436 7.23307 71.6092 7.472C71.4823 7.71093 71.4188 7.9872 71.4188 8.3008C71.4188 8.6144 71.4823 8.8944 71.6092 9.1408C71.7436 9.3872 71.9265 9.58133 72.158 9.7232C72.3969 9.8576 72.6657 9.9248 72.9644 9.9248ZM80.4961 11V7.8976C80.4961 7.5392 80.3804 7.24427 80.1489 7.0128C79.9249 6.78133 79.6337 6.6656 79.2753 6.6656C79.0364 6.6656 78.8236 6.71787 78.6369 6.8224C78.4503 6.92693 78.3047 7.07253 78.2001 7.2592C78.0956 7.44587 78.0433 7.65867 78.0433 7.8976L77.5617 7.6288C77.5617 7.21813 77.6513 6.856 77.8305 6.5424C78.0097 6.22133 78.2561 5.9712 78.5697 5.792C78.8908 5.60533 79.2492 5.512 79.6449 5.512C80.0481 5.512 80.4065 5.61653 80.7201 5.8256C81.0337 6.0272 81.2801 6.29227 81.4593 6.6208C81.6385 6.94187 81.7281 7.27787 81.7281 7.6288V11H80.4961ZM76.8113 11V5.624H78.0433V11H76.8113Z" fill="black"/>
<path d="M48.6428 37.424C47.5228 37.424 46.47 37.2224 45.4844 36.8192C44.5137 36.4011 43.6551 35.8187 42.9084 35.072C42.1767 34.3253 41.6017 33.4667 41.1836 32.496C40.7804 31.5104 40.5788 30.4501 40.5788 29.3152C40.5788 28.1653 40.7879 27.1051 41.206 26.1344C41.6241 25.1488 42.2065 24.2901 42.9532 23.5584C43.6999 22.8117 44.5735 22.2368 45.574 21.8336C46.5745 21.4155 47.6572 21.2064 48.822 21.2064C50.1212 21.2064 51.3159 21.4528 52.406 21.9456C53.4961 22.4235 54.3996 23.1029 55.1164 23.984L53.0556 26.0448C52.5628 25.4027 51.9505 24.9099 51.2188 24.5664C50.4871 24.2229 49.6807 24.0512 48.7996 24.0512C47.7991 24.0512 46.9105 24.2752 46.134 24.7232C45.3724 25.1563 44.7751 25.7685 44.342 26.56C43.9089 27.3365 43.6924 28.2475 43.6924 29.2928C43.6924 30.3381 43.9015 31.264 44.3196 32.0704C44.7527 32.8619 45.3351 33.4816 46.0668 33.9296C46.8135 34.3776 47.6647 34.6016 48.6204 34.6016C49.606 34.6016 50.4497 34.4224 51.1516 34.064C51.8535 33.6907 52.3911 33.1531 52.7644 32.4512C53.1377 31.7344 53.3244 30.8608 53.3244 29.8304L55.318 31.1968L48.4412 31.1296V28.4864H56.4604V28.912C56.4604 30.7936 56.1244 32.3691 55.4524 33.6384C54.7804 34.8928 53.8545 35.8411 52.6748 36.4832C51.51 37.1104 50.166 37.424 48.6428 37.424ZM62.9104 37.424C61.8202 37.424 60.8346 37.1776 59.9536 36.6848C59.0874 36.1771 58.393 35.4976 57.8704 34.6464C57.3626 33.7803 57.1088 32.8171 57.1088 31.7568C57.1088 30.6965 57.3626 29.7483 57.8704 28.912C58.3781 28.0608 59.0725 27.3888 59.9536 26.896C60.8346 26.3883 61.8128 26.1344 62.888 26.1344C63.993 26.1344 64.9786 26.3883 65.8448 26.896C66.7258 27.3888 67.4202 28.0608 67.928 28.912C68.4357 29.7483 68.6896 30.6965 68.6896 31.7568C68.6896 32.8171 68.4357 33.7803 67.928 34.6464C67.4202 35.4976 66.7258 36.1771 65.8448 36.6848C64.9786 37.1776 64.0005 37.424 62.9104 37.424ZM62.888 34.6912C63.4405 34.6912 63.9258 34.5717 64.344 34.3328C64.777 34.0789 65.1056 33.7355 65.3296 33.3024C65.5685 32.8544 65.688 32.3467 65.688 31.7792C65.688 31.2117 65.5685 30.7115 65.3296 30.2784C65.0906 29.8453 64.7621 29.5093 64.344 29.2704C63.9258 29.0165 63.4405 28.8896 62.888 28.8896C62.3504 28.8896 61.8725 29.0165 61.4544 29.2704C61.0362 29.5093 60.7077 29.8453 60.4688 30.2784C60.2298 30.7115 60.1104 31.2117 60.1104 31.7792C60.1104 32.3467 60.2298 32.8544 60.4688 33.3024C60.7077 33.7355 61.0362 34.0789 61.4544 34.3328C61.8725 34.5717 62.3504 34.6912 62.888 34.6912ZM75.0055 37.424C73.9154 37.424 72.9298 37.1776 72.0487 36.6848C71.1826 36.1771 70.4882 35.4976 69.9655 34.6464C69.4578 33.7803 69.2039 32.8171 69.2039 31.7568C69.2039 30.6965 69.4578 29.7483 69.9655 28.912C70.4732 28.0608 71.1676 27.3888 72.0487 26.896C72.9298 26.3883 73.9079 26.1344 74.9831 26.1344C76.0882 26.1344 77.0738 26.3883 77.9399 26.896C78.821 27.3888 79.5154 28.0608 80.0231 28.912C80.5308 29.7483 80.7847 30.6965 80.7847 31.7568C80.7847 32.8171 80.5308 33.7803 80.0231 34.6464C79.5154 35.4976 78.821 36.1771 77.9399 36.6848C77.0738 37.1776 76.0956 37.424 75.0055 37.424ZM74.9831 34.6912C75.5356 34.6912 76.021 34.5717 76.4391 34.3328C76.8722 34.0789 77.2007 33.7355 77.4247 33.3024C77.6636 32.8544 77.7831 32.3467 77.7831 31.7792C77.7831 31.2117 77.6636 30.7115 77.4247 30.2784C77.1858 29.8453 76.8572 29.5093 76.4391 29.2704C76.021 29.0165 75.5356 28.8896 74.9831 28.8896C74.4455 28.8896 73.9676 29.0165 73.5495 29.2704C73.1314 29.5093 72.8028 29.8453 72.5639 30.2784C72.325 30.7115 72.2055 31.2117 72.2055 31.7792C72.2055 32.3467 72.325 32.8544 72.5639 33.3024C72.8028 33.7355 73.1314 34.0789 73.5495 34.3328C73.9676 34.5717 74.4455 34.6912 74.9831 34.6912ZM86.5406 41.9936C85.3908 41.9936 84.3753 41.7845 83.4942 41.3664C82.6132 40.9632 81.9113 40.3883 81.3886 39.6416L83.2478 37.7824C83.666 38.2752 84.1289 38.6485 84.6366 38.9024C85.1593 39.1712 85.7865 39.3056 86.5182 39.3056C87.4292 39.3056 88.146 39.0741 88.6686 38.6112C89.2062 38.1483 89.475 37.5061 89.475 36.6848V33.9744L89.9678 31.6L89.4974 29.2256V26.3808H92.4094V36.64C92.4094 37.7152 92.1556 38.6485 91.6478 39.44C91.155 40.2464 90.4681 40.8736 89.587 41.3216C88.706 41.7696 87.6905 41.9936 86.5406 41.9936ZM86.4062 36.9088C85.4356 36.9088 84.562 36.6773 83.7854 36.2144C83.0089 35.7365 82.3966 35.0869 81.9486 34.2656C81.5156 33.4443 81.299 32.5259 81.299 31.5104C81.299 30.4949 81.5156 29.584 81.9486 28.7776C82.3966 27.9712 83.0089 27.3365 83.7854 26.8736C84.562 26.3957 85.4356 26.1568 86.4062 26.1568C87.2126 26.1568 87.922 26.3136 88.5342 26.6272C89.1614 26.9408 89.6542 27.3739 90.0126 27.9264C90.371 28.464 90.5652 29.0987 90.595 29.8304V33.2352C90.5652 33.952 90.3636 34.5941 89.9902 35.1616C89.6318 35.7141 89.139 36.1472 88.5118 36.4608C87.8996 36.7595 87.1977 36.9088 86.4062 36.9088ZM86.9886 34.2432C87.5262 34.2432 87.9892 34.1312 88.3774 33.9072C88.7806 33.6683 89.0942 33.3472 89.3182 32.944C89.5422 32.5259 89.6542 32.0555 89.6542 31.5328C89.6542 30.9952 89.5422 30.5248 89.3182 30.1216C89.0942 29.7184 88.7806 29.4048 88.3774 29.1808C87.9892 28.9419 87.5262 28.8224 86.9886 28.8224C86.451 28.8224 85.9806 28.9419 85.5774 29.1808C85.1742 29.4048 84.8606 29.7259 84.6366 30.144C84.4126 30.5472 84.3006 31.0101 84.3006 31.5328C84.3006 32.0405 84.4126 32.5035 84.6366 32.9216C84.8606 33.3248 85.1742 33.6459 85.5774 33.8848C85.9806 34.1237 86.451 34.2432 86.9886 34.2432ZM94.3297 37.2V21.0048H97.2641V37.2H94.3297ZM104.38 37.424C103.246 37.424 102.238 37.1851 101.356 36.7072C100.475 36.2144 99.7735 35.5424 99.2509 34.6912C98.7431 33.84 98.4893 32.8693 98.4893 31.7792C98.4893 30.704 98.7357 29.7483 99.2285 28.912C99.7362 28.0608 100.423 27.3888 101.289 26.896C102.155 26.3883 103.119 26.1344 104.179 26.1344C105.224 26.1344 106.143 26.3733 106.934 26.8512C107.74 27.3141 108.368 27.9563 108.816 28.7776C109.279 29.584 109.51 30.5024 109.51 31.5328C109.51 31.7269 109.495 31.9285 109.465 32.1376C109.45 32.3317 109.413 32.5557 109.353 32.8096L100.259 32.832V30.6368L107.987 30.6144L106.8 31.5328C106.77 30.8907 106.65 30.3531 106.441 29.92C106.247 29.4869 105.956 29.1584 105.568 28.9344C105.194 28.6955 104.731 28.576 104.179 28.576C103.596 28.576 103.089 28.7104 102.656 28.9792C102.223 29.2331 101.887 29.5989 101.648 30.0768C101.424 30.5397 101.312 31.0923 101.312 31.7344C101.312 32.3915 101.431 32.9664 101.67 33.4592C101.924 33.9371 102.282 34.3104 102.745 34.5792C103.208 34.8331 103.746 34.96 104.358 34.96C104.911 34.96 105.411 34.8704 105.859 34.6912C106.307 34.4971 106.695 34.2133 107.024 33.84L108.748 35.5648C108.226 36.1771 107.584 36.64 106.822 36.9536C106.075 37.2672 105.262 37.424 104.38 37.424ZM116.937 31.3536V28.8672H120.589C121.066 28.8672 121.5 28.7701 121.888 28.576C122.276 28.3819 122.582 28.1056 122.806 27.7472C123.03 27.3739 123.142 26.9259 123.142 26.4032C123.142 25.8955 123.03 25.4549 122.806 25.0816C122.582 24.7083 122.276 24.4245 121.888 24.2304C121.5 24.0363 121.066 23.9392 120.589 23.9392H116.937V21.4528H120.902C121.903 21.4528 122.799 21.6544 123.59 22.0576C124.397 22.4608 125.031 23.0357 125.494 23.7824C125.957 24.5141 126.189 25.3877 126.189 26.4032C126.189 27.4187 125.957 28.2997 125.494 29.0464C125.031 29.7781 124.397 30.3456 123.59 30.7488C122.799 31.152 121.903 31.3536 120.902 31.3536H116.937ZM114.697 37.2V21.4528H117.744V37.2H114.697ZM127.529 37.2V21.0048H130.463V37.2H127.529ZM136.93 37.424C135.945 37.424 135.056 37.1776 134.265 36.6848C133.473 36.192 132.853 35.52 132.405 34.6688C131.957 33.8176 131.733 32.8619 131.733 31.8016C131.733 30.7264 131.957 29.7632 132.405 28.912C132.853 28.0608 133.473 27.3888 134.265 26.896C135.056 26.4032 135.945 26.1568 136.93 26.1568C137.707 26.1568 138.401 26.3136 139.013 26.6272C139.626 26.9408 140.111 27.3813 140.469 27.9488C140.843 28.5013 141.044 29.1285 141.074 29.8304V33.728C141.044 34.4448 140.843 35.0795 140.469 35.632C140.111 36.1845 139.626 36.6251 139.013 36.9536C138.401 37.2672 137.707 37.424 136.93 37.424ZM137.468 34.7136C138.289 34.7136 138.954 34.4448 139.461 33.9072C139.969 33.3547 140.223 32.6453 140.223 31.7792C140.223 31.2117 140.103 30.7115 139.865 30.2784C139.641 29.8304 139.319 29.4869 138.901 29.248C138.498 28.9941 138.02 28.8672 137.468 28.8672C136.93 28.8672 136.452 28.9941 136.034 29.248C135.631 29.4869 135.31 29.8304 135.071 30.2784C134.847 30.7115 134.735 31.2117 134.735 31.7792C134.735 32.3616 134.847 32.8768 135.071 33.3248C135.31 33.7579 135.631 34.1013 136.034 34.3552C136.452 34.5941 136.93 34.7136 137.468 34.7136ZM140.066 37.2V34.288L140.537 31.6448L140.066 29.0464V26.3808H142.978V37.2H140.066ZM148.321 37.2896L143.796 26.3808H146.977L149.978 34.7136H148.903L152.017 26.3808H155.22L150.404 37.2896H148.321ZM145.319 41.7248L148.612 34.7584L150.404 37.2896L148.433 41.7248H145.319Z" fill="black"/>
</svg>
