<svg width="155" height="35" viewBox="0 0 155 35" fill="none" xmlns="http://www.w3.org/2000/svg">
<path d="M17.0002 3.33331C20.5436 7.21265 22.5574 12.247 22.6668 17.5C22.5574 22.7529 20.5436 27.7873 17.0002 31.6666M17.0002 3.33331C13.4567 7.21265 11.4429 12.247 11.3335 17.5C11.4429 22.7529 13.4567 27.7873 17.0002 31.6666M17.0002 3.33331C9.17613 3.33331 2.8335 9.67595 2.8335 17.5C2.8335 25.324 9.17613 31.6666 17.0002 31.6666M17.0002 3.33331C24.8242 3.33331 31.1668 9.67595 31.1668 17.5C31.1668 25.324 24.8242 31.6666 17.0002 31.6666M3.54186 13.25H30.4585M3.54183 21.75H30.4585" stroke="black" stroke-width="2.83333" stroke-linecap="round" stroke-linejoin="round"/>
<path d="M45.2688 10L48.4944 2.16H49.3904L52.5936 10H51.2048L48.696 3.6496H49.1664L46.6352 10H45.2688ZM46.8592 8.488V7.368H51.0144V8.488H46.8592ZM54.596 10L52.1432 4.624H53.5096L55.38 9.0032H54.5736L56.4552 4.624H57.7656L55.3128 10H54.596ZM60.5563 10.112C60.0709 10.112 59.6304 9.9888 59.2347 9.7424C58.8464 9.496 58.5365 9.16373 58.3051 8.7456C58.0811 8.32 57.9691 7.84587 57.9691 7.3232C57.9691 6.79307 58.0811 6.31893 58.3051 5.9008C58.5365 5.4752 58.8464 5.1392 59.2347 4.8928C59.6304 4.63893 60.0709 4.512 60.5563 4.512C60.9669 4.512 61.3291 4.6016 61.6427 4.7808C61.9637 4.95253 62.2176 5.19147 62.4043 5.4976C62.5909 5.80373 62.6843 6.15093 62.6843 6.5392V8.0848C62.6843 8.47307 62.5909 8.82027 62.4043 9.1264C62.2251 9.43253 61.9749 9.6752 61.6539 9.8544C61.3328 10.0261 60.9669 10.112 60.5563 10.112ZM60.7579 8.9472C61.2133 8.9472 61.5792 8.79413 61.8555 8.488C62.1392 8.18187 62.2811 7.78987 62.2811 7.312C62.2811 6.99093 62.2176 6.7072 62.0907 6.4608C61.9637 6.2144 61.7845 6.024 61.5531 5.8896C61.3291 5.74773 61.064 5.6768 60.7579 5.6768C60.4592 5.6768 60.1941 5.74773 59.9627 5.8896C59.7387 6.024 59.5595 6.2144 59.4251 6.4608C59.2981 6.7072 59.2347 6.99093 59.2347 7.312C59.2347 7.63307 59.2981 7.9168 59.4251 8.1632C59.5595 8.4096 59.7387 8.60373 59.9627 8.7456C60.1941 8.88 60.4592 8.9472 60.7579 8.9472ZM62.2027 10V8.5552L62.4155 7.2448L62.2027 5.9456V4.624H63.4347V10H62.2027ZM64.8131 10V4.624H66.0451V10H64.8131ZM65.4291 3.6384C65.2201 3.6384 65.0446 3.56747 64.9027 3.4256C64.7683 3.28373 64.7011 3.10827 64.7011 2.8992C64.7011 2.69013 64.7683 2.51467 64.9027 2.3728C65.0446 2.23093 65.2201 2.16 65.4291 2.16C65.6457 2.16 65.8211 2.23093 65.9555 2.3728C66.0899 2.51467 66.1571 2.69013 66.1571 2.8992C66.1571 3.10827 66.0899 3.28373 65.9555 3.4256C65.8211 3.56747 65.6457 3.6384 65.4291 3.6384ZM67.4269 10V1.936H68.6589V10H67.4269ZM72.2813 10.112C71.7959 10.112 71.3554 9.9888 70.9597 9.7424C70.5714 9.496 70.2615 9.16373 70.0301 8.7456C69.8061 8.32 69.6941 7.84587 69.6941 7.3232C69.6941 6.79307 69.8061 6.31893 70.0301 5.9008C70.2615 5.4752 70.5714 5.1392 70.9597 4.8928C71.3554 4.63893 71.7959 4.512 72.2813 4.512C72.6919 4.512 73.0541 4.6016 73.3677 4.7808C73.6887 4.95253 73.9426 5.19147 74.1293 5.4976C74.3159 5.80373 74.4093 6.15093 74.4093 6.5392V8.0848C74.4093 8.47307 74.3159 8.82027 74.1293 9.1264C73.9501 9.43253 73.6999 9.6752 73.3789 9.8544C73.0578 10.0261 72.6919 10.112 72.2813 10.112ZM72.4829 8.9472C72.9383 8.9472 73.3042 8.79413 73.5805 8.488C73.8642 8.18187 74.0061 7.78987 74.0061 7.312C74.0061 6.99093 73.9426 6.7072 73.8157 6.4608C73.6887 6.2144 73.5095 6.024 73.2781 5.8896C73.0541 5.74773 72.789 5.6768 72.4829 5.6768C72.1842 5.6768 71.9191 5.74773 71.6877 5.8896C71.4637 6.024 71.2845 6.2144 71.1501 6.4608C71.0231 6.7072 70.9597 6.99093 70.9597 7.312C70.9597 7.63307 71.0231 7.9168 71.1501 8.1632C71.2845 8.4096 71.4637 8.60373 71.6877 8.7456C71.9191 8.88 72.1842 8.9472 72.4829 8.9472ZM73.9277 10V8.5552L74.1405 7.2448L73.9277 5.9456V4.624H75.1597V10H73.9277ZM79.4054 10.112C78.9947 10.112 78.6288 10.0261 78.3078 9.8544C77.9867 9.6752 77.7328 9.43253 77.5462 9.1264C77.367 8.82027 77.2774 8.47307 77.2774 8.0848V6.5392C77.2774 6.15093 77.3707 5.80373 77.5574 5.4976C77.744 5.19147 77.9979 4.95253 78.319 4.7808C78.64 4.6016 79.0022 4.512 79.4054 4.512C79.8907 4.512 80.3275 4.63893 80.7158 4.8928C81.1115 5.1392 81.4214 5.4752 81.6453 5.9008C81.8768 6.31893 81.9926 6.79307 81.9926 7.3232C81.9926 7.84587 81.8768 8.32 81.6453 8.7456C81.4214 9.16373 81.1115 9.496 80.7158 9.7424C80.3275 9.9888 79.8907 10.112 79.4054 10.112ZM76.527 10V1.936H77.759V5.9456L77.5462 7.2448L77.759 8.5552V10H76.527ZM79.2038 8.9472C79.5024 8.9472 79.7637 8.88 79.9877 8.7456C80.2192 8.60373 80.3984 8.4096 80.5254 8.1632C80.6598 7.9168 80.727 7.63307 80.727 7.312C80.727 6.99093 80.6598 6.7072 80.5254 6.4608C80.3984 6.2144 80.2192 6.024 79.9877 5.8896C79.7637 5.74773 79.5024 5.6768 79.2038 5.6768C78.9051 5.6768 78.64 5.74773 78.4086 5.8896C78.1771 6.024 77.9979 6.2144 77.871 6.4608C77.744 6.7072 77.6806 6.99093 77.6806 7.312C77.6806 7.63307 77.744 7.9168 77.871 8.1632C77.9979 8.4096 78.1771 8.60373 78.4086 8.7456C78.64 8.88 78.9051 8.9472 79.2038 8.9472ZM83.0238 10V1.936H84.2558V10H83.0238ZM88.1245 10.112C87.5869 10.112 87.1016 9.99253 86.6685 9.7536C86.2429 9.5072 85.9032 9.1712 85.6493 8.7456C85.4029 8.32 85.2797 7.84213 85.2797 7.312C85.2797 6.78187 85.4029 6.30773 85.6493 5.8896C85.8957 5.464 86.228 5.128 86.6461 4.8816C87.0717 4.6352 87.5421 4.512 88.0573 4.512C88.5576 4.512 88.9981 4.62773 89.3789 4.8592C89.7672 5.09067 90.0696 5.408 90.2861 5.8112C90.5101 6.2144 90.6221 6.6736 90.6221 7.1888C90.6221 7.2784 90.6147 7.37173 90.5997 7.4688C90.5923 7.5584 90.5773 7.6592 90.5549 7.7712H86.1421V6.7632H89.9165L89.4573 7.1664C89.4424 6.83787 89.3789 6.5616 89.2669 6.3376C89.1549 6.1136 88.9944 5.94187 88.7853 5.8224C88.5837 5.70293 88.3336 5.6432 88.0349 5.6432C87.7213 5.6432 87.4488 5.7104 87.2173 5.8448C86.9859 5.9792 86.8067 6.1696 86.6797 6.416C86.5528 6.65493 86.4893 6.9424 86.4893 7.2784C86.4893 7.6144 86.5565 7.90933 86.6909 8.1632C86.8253 8.41707 87.0157 8.61493 87.2621 8.7568C87.5085 8.8912 87.7923 8.9584 88.1133 8.9584C88.3896 8.9584 88.6435 8.90987 88.8749 8.8128C89.1139 8.71573 89.3155 8.57387 89.4797 8.3872L90.2637 9.1824C90.0024 9.48853 89.6851 9.72 89.3117 9.8768C88.9384 10.0336 88.5427 10.112 88.1245 10.112ZM96.3159 10.112C95.7933 10.112 95.3191 9.9888 94.8935 9.7424C94.4679 9.48853 94.1282 9.1488 93.8743 8.7232C93.6279 8.2976 93.5047 7.82347 93.5047 7.3008C93.5047 6.77813 93.6279 6.30773 93.8743 5.8896C94.1282 5.47147 94.4679 5.1392 94.8935 4.8928C95.3191 4.63893 95.7933 4.512 96.3159 4.512C96.8461 4.512 97.3239 4.6352 97.7495 4.8816C98.1751 5.128 98.5111 5.464 98.7575 5.8896C99.0114 6.30773 99.1383 6.77813 99.1383 7.3008C99.1383 7.82347 99.0114 8.2976 98.7575 8.7232C98.5111 9.1488 98.1751 9.48853 97.7495 9.7424C97.3239 9.9888 96.8461 10.112 96.3159 10.112ZM96.3159 8.9248C96.6221 8.9248 96.8909 8.8576 97.1223 8.7232C97.3613 8.58133 97.5442 8.3872 97.6711 8.1408C97.8055 7.8944 97.8727 7.6144 97.8727 7.3008C97.8727 6.9872 97.8055 6.71093 97.6711 6.472C97.5367 6.23307 97.3538 6.0464 97.1223 5.912C96.8909 5.77013 96.6221 5.6992 96.3159 5.6992C96.0173 5.6992 95.7485 5.77013 95.5095 5.912C95.2781 6.0464 95.0951 6.23307 94.9607 6.472C94.8338 6.71093 94.7703 6.9872 94.7703 7.3008C94.7703 7.6144 94.8338 7.8944 94.9607 8.1408C95.0951 8.3872 95.2781 8.58133 95.5095 8.7232C95.7485 8.8576 96.0173 8.9248 96.3159 8.9248ZM103.848 10V6.8976C103.848 6.5392 103.732 6.24427 103.5 6.0128C103.276 5.78133 102.985 5.6656 102.627 5.6656C102.388 5.6656 102.175 5.71787 101.988 5.8224C101.802 5.92693 101.656 6.07253 101.552 6.2592C101.447 6.44587 101.395 6.65867 101.395 6.8976L100.913 6.6288C100.913 6.21813 101.003 5.856 101.182 5.5424C101.361 5.22133 101.608 4.9712 101.921 4.792C102.242 4.60533 102.601 4.512 102.996 4.512C103.4 4.512 103.758 4.61653 104.072 4.8256C104.385 5.0272 104.632 5.29227 104.811 5.6208C104.99 5.94187 105.08 6.27787 105.08 6.6288V10H103.848ZM100.163 10V4.624H101.395V10H100.163ZM109.391 10V2.384H110.623V10H109.391ZM108.103 5.744V4.624H111.911V5.744H108.103ZM116.491 10V6.8976C116.491 6.5392 116.376 6.24427 116.144 6.0128C115.92 5.78133 115.629 5.6656 115.271 5.6656C115.032 5.6656 114.819 5.71787 114.632 5.8224C114.446 5.92693 114.3 6.07253 114.195 6.2592C114.091 6.44587 114.039 6.65867 114.039 6.8976L113.557 6.6288C113.557 6.21813 113.647 5.856 113.826 5.5424C114.005 5.22133 114.251 4.9712 114.565 4.792C114.886 4.60533 115.245 4.512 115.64 4.512C116.043 4.512 116.402 4.6016 116.715 4.7808C117.029 4.96 117.275 5.21013 117.455 5.5312C117.634 5.8448 117.723 6.21067 117.723 6.6288V10H116.491ZM112.807 10V1.936H114.039V10H112.807ZM121.473 10.112C120.935 10.112 120.45 9.99253 120.017 9.7536C119.591 9.5072 119.252 9.1712 118.998 8.7456C118.751 8.32 118.628 7.84213 118.628 7.312C118.628 6.78187 118.751 6.30773 118.998 5.8896C119.244 5.464 119.576 5.128 119.995 4.8816C120.42 4.6352 120.891 4.512 121.406 4.512C121.906 4.512 122.347 4.62773 122.727 4.8592C123.116 5.09067 123.418 5.408 123.635 5.8112C123.859 6.2144 123.971 6.6736 123.971 7.1888C123.971 7.2784 123.963 7.37173 123.948 7.4688C123.941 7.5584 123.926 7.6592 123.903 7.7712H119.491V6.7632H123.265L122.806 7.1664C122.791 6.83787 122.727 6.5616 122.615 6.3376C122.503 6.1136 122.343 5.94187 122.134 5.8224C121.932 5.70293 121.682 5.6432 121.383 5.6432C121.07 5.6432 120.797 5.7104 120.566 5.8448C120.334 5.9792 120.155 6.1696 120.028 6.416C119.901 6.65493 119.838 6.9424 119.838 7.2784C119.838 7.6144 119.905 7.90933 120.039 8.1632C120.174 8.41707 120.364 8.61493 120.611 8.7568C120.857 8.8912 121.141 8.9584 121.462 8.9584C121.738 8.9584 121.992 8.90987 122.223 8.8128C122.462 8.71573 122.664 8.57387 122.828 8.3872L123.612 9.1824C123.351 9.48853 123.034 9.72 122.66 9.8768C122.287 10.0336 121.891 10.112 121.473 10.112Z" fill="black"/>
<path d="M50.6 32L45.4928 16.2528H48.4944L52.28 28.3712H51.272L54.9904 16.2528H57.2528L60.9712 28.3712H59.9408L63.7488 16.2528H66.7504L61.6208 32H59.3584L55.6176 19.904H56.6032L52.8848 32H50.6ZM71.5531 32.224C70.4182 32.224 69.4102 31.9851 68.5291 31.5072C67.648 31.0144 66.9462 30.3424 66.4235 29.4912C65.9158 28.64 65.6619 27.6693 65.6619 26.5792C65.6619 25.504 65.9083 24.5483 66.4011 23.712C66.9088 22.8608 67.5958 22.1888 68.4619 21.696C69.328 21.1883 70.2912 20.9344 71.3515 20.9344C72.3968 20.9344 73.3152 21.1733 74.1067 21.6512C74.9131 22.1141 75.5403 22.7563 75.9883 23.5776C76.4512 24.384 76.6827 25.3024 76.6827 26.3328C76.6827 26.5269 76.6678 26.7285 76.6379 26.9376C76.623 27.1317 76.5856 27.3557 76.5259 27.6096L67.4315 27.632V25.4368L75.1595 25.4144L73.9723 26.3328C73.9424 25.6907 73.823 25.1531 73.6139 24.72C73.4198 24.2869 73.1286 23.9584 72.7403 23.7344C72.367 23.4955 71.904 23.376 71.3515 23.376C70.7691 23.376 70.2614 23.5104 69.8283 23.7792C69.3952 24.0331 69.0592 24.3989 68.8203 24.8768C68.5963 25.3397 68.4843 25.8923 68.4843 26.5344C68.4843 27.1915 68.6038 27.7664 68.8427 28.2592C69.0966 28.7371 69.455 29.1104 69.9179 29.3792C70.3808 29.6331 70.9184 29.76 71.5307 29.76C72.0832 29.76 72.5835 29.6704 73.0315 29.4912C73.4795 29.2971 73.8678 29.0133 74.1963 28.64L75.9211 30.3648C75.3984 30.9771 74.7563 31.44 73.9947 31.7536C73.248 32.0672 72.4342 32.224 71.5531 32.224ZM83.8426 32.224C83.0661 32.224 82.3642 32.0597 81.737 31.7312C81.1098 31.4027 80.6096 30.9547 80.2362 30.3872C79.8629 29.8197 79.6613 29.1851 79.6314 28.4832V24.6304C79.6613 23.9285 79.8629 23.3013 80.2362 22.7488C80.6245 22.1813 81.1322 21.7408 81.7594 21.4272C82.3866 21.1136 83.081 20.9568 83.8426 20.9568C84.8432 20.9568 85.7392 21.2032 86.5306 21.696C87.3221 22.1888 87.9418 22.8608 88.3898 23.712C88.8528 24.5632 89.0842 25.5264 89.0842 26.6016C89.0842 27.6619 88.8528 28.6176 88.3898 29.4688C87.9418 30.32 87.3221 30.992 86.5306 31.4848C85.7392 31.9776 84.8432 32.224 83.8426 32.224ZM77.8394 32V15.8048H80.7738V23.8464L80.281 26.4448L80.7514 29.088V32H77.8394ZM83.3498 29.5136C83.8874 29.5136 84.3578 29.3941 84.761 29.1552C85.1792 28.9013 85.5002 28.5579 85.7242 28.1248C85.9632 27.6768 86.0826 27.1616 86.0826 26.5792C86.0826 26.0117 85.9632 25.5115 85.7242 25.0784C85.5002 24.6304 85.1792 24.2869 84.761 24.048C84.3429 23.7941 83.865 23.6672 83.3274 23.6672C82.7898 23.6672 82.312 23.7941 81.8938 24.048C81.4906 24.2869 81.1696 24.6304 80.9306 25.0784C80.7066 25.5115 80.5946 26.0117 80.5946 26.5792C80.5946 27.1616 80.7066 27.6768 80.9306 28.1248C81.1696 28.5579 81.4981 28.9013 81.9162 29.1552C82.3344 29.3941 82.8122 29.5136 83.3498 29.5136Z" fill="black"/>
</svg>
