<svg width="149" height="37" viewBox="0 0 149 37" fill="none" xmlns="http://www.w3.org/2000/svg">
<path d="M23.6652 18.5811C23.6824 17.2779 24.037 16.0002 24.6959 14.8667C25.3548 13.7332 26.2967 12.7809 27.434 12.0983C26.7115 11.091 25.7584 10.262 24.6504 9.6772C23.5424 9.09239 22.31 8.76787 21.0511 8.72942C18.3655 8.4542 15.762 10.2983 14.3935 10.2983C12.9985 10.2983 10.8915 8.75674 8.62255 8.80231C7.15495 8.8486 5.72466 9.26526 4.47104 10.0117C3.21742 10.7581 2.18321 11.8088 1.4692 13.0615C-1.62369 18.2895 0.683329 25.973 3.64611 30.199C5.12847 32.2684 6.8609 34.5799 9.12778 34.4979C11.346 34.4081 12.1745 33.1169 14.8522 33.1169C17.5049 33.1169 18.2822 34.4979 20.5951 34.4458C22.9754 34.4081 24.4751 32.3673 25.9055 30.2783C26.9705 28.8038 27.7901 27.1742 28.3338 25.4498C26.9509 24.8788 25.7708 23.923 24.9406 22.7015C24.1104 21.4801 23.6668 20.0471 23.6652 18.5811Z" fill="black"/>
<path d="M19.2966 5.95004C20.5944 4.42896 21.2338 2.47386 21.079 0.499939C19.0962 0.703258 17.2646 1.62845 15.9492 3.09117C15.3061 3.80575 14.8135 4.63707 14.4997 5.53761C14.1858 6.43816 14.0569 7.39026 14.1201 8.33949C15.1119 8.34946 16.093 8.13959 16.9897 7.7257C17.8863 7.31181 18.6751 6.70468 19.2966 5.95004Z" fill="black"/>
<path d="M41.0695 10V8.824H43.1303C43.6679 8.824 44.1383 8.70827 44.5415 8.4768C44.9522 8.24533 45.2695 7.92427 45.4935 7.5136C45.725 7.09547 45.8407 6.61387 45.8407 6.0688C45.8407 5.5312 45.725 5.05707 45.4935 4.6464C45.262 4.23573 44.941 3.91467 44.5303 3.6832C44.1271 3.45173 43.6604 3.336 43.1303 3.336H41.0695V2.16H43.1639C43.7314 2.16 44.2578 2.2608 44.7431 2.4624C45.2284 2.65653 45.6503 2.9328 46.0087 3.2912C46.3746 3.64213 46.6583 4.05653 46.8599 4.5344C47.0615 5.0048 47.1623 5.52 47.1623 6.08C47.1623 6.63253 47.0615 7.14773 46.8599 7.6256C46.6583 8.10347 46.3783 8.5216 46.0199 8.88C45.6615 9.23093 45.2396 9.5072 44.7543 9.7088C44.269 9.90293 43.7463 10 43.1863 10H41.0695ZM40.1847 10V2.16H41.4727V10H40.1847ZM50.7713 10.112C50.2487 10.112 49.7745 9.9888 49.3489 9.7424C48.9233 9.48853 48.5836 9.1488 48.3297 8.7232C48.0833 8.2976 47.9601 7.82347 47.9601 7.3008C47.9601 6.77813 48.0833 6.30773 48.3297 5.8896C48.5836 5.47147 48.9233 5.1392 49.3489 4.8928C49.7745 4.63893 50.2487 4.512 50.7713 4.512C51.3015 4.512 51.7793 4.6352 52.2049 4.8816C52.6305 5.128 52.9665 5.464 53.2129 5.8896C53.4668 6.30773 53.5937 6.77813 53.5937 7.3008C53.5937 7.82347 53.4668 8.2976 53.2129 8.7232C52.9665 9.1488 52.6305 9.48853 52.2049 9.7424C51.7793 9.9888 51.3015 10.112 50.7713 10.112ZM50.7713 8.9248C51.0775 8.9248 51.3463 8.8576 51.5777 8.7232C51.8167 8.58133 51.9996 8.3872 52.1265 8.1408C52.2609 7.8944 52.3281 7.6144 52.3281 7.3008C52.3281 6.9872 52.2609 6.71093 52.1265 6.472C51.9921 6.23307 51.8092 6.0464 51.5777 5.912C51.3463 5.77013 51.0775 5.6992 50.7713 5.6992C50.4727 5.6992 50.2039 5.77013 49.9649 5.912C49.7335 6.0464 49.5505 6.23307 49.4161 6.472C49.2892 6.71093 49.2257 6.9872 49.2257 7.3008C49.2257 7.6144 49.2892 7.8944 49.4161 8.1408C49.5505 8.3872 49.7335 8.58133 49.9649 8.7232C50.2039 8.8576 50.4727 8.9248 50.7713 8.9248ZM56.055 10L53.8934 4.624H55.1702L56.6262 8.5328L56.2454 8.544L57.6678 4.624H58.3846L59.807 8.544L59.4262 8.5328L60.8822 4.624H62.159L59.9974 10H59.2806L57.8246 6.2816H58.2278L56.7718 10H56.055ZM66.6156 10V6.8976C66.6156 6.5392 66.4998 6.24427 66.2684 6.0128C66.0444 5.78133 65.7532 5.6656 65.3948 5.6656C65.1558 5.6656 64.943 5.71787 64.7564 5.8224C64.5697 5.92693 64.4241 6.07253 64.3196 6.2592C64.215 6.44587 64.1628 6.65867 64.1628 6.8976L63.6812 6.6288C63.6812 6.21813 63.7708 5.856 63.95 5.5424C64.1292 5.22133 64.3756 4.9712 64.6892 4.792C65.0102 4.60533 65.3686 4.512 65.7644 4.512C66.1676 4.512 66.526 4.61653 66.8396 4.8256C67.1532 5.0272 67.3996 5.29227 67.5788 5.6208C67.758 5.94187 67.8476 6.27787 67.8476 6.6288V10H66.6156ZM62.9308 10V4.624H64.1628V10H62.9308ZM69.0995 10V1.936H70.3315V10H69.0995ZM74.1666 10.112C73.644 10.112 73.1698 9.9888 72.7442 9.7424C72.3186 9.48853 71.9789 9.1488 71.725 8.7232C71.4786 8.2976 71.3554 7.82347 71.3554 7.3008C71.3554 6.77813 71.4786 6.30773 71.725 5.8896C71.9789 5.47147 72.3186 5.1392 72.7442 4.8928C73.1698 4.63893 73.644 4.512 74.1666 4.512C74.6968 4.512 75.1746 4.6352 75.6002 4.8816C76.0258 5.128 76.3618 5.464 76.6082 5.8896C76.8621 6.30773 76.989 6.77813 76.989 7.3008C76.989 7.82347 76.8621 8.2976 76.6082 8.7232C76.3618 9.1488 76.0258 9.48853 75.6002 9.7424C75.1746 9.9888 74.6968 10.112 74.1666 10.112ZM74.1666 8.9248C74.4728 8.9248 74.7416 8.8576 74.973 8.7232C75.212 8.58133 75.3949 8.3872 75.5218 8.1408C75.6562 7.8944 75.7234 7.6144 75.7234 7.3008C75.7234 6.9872 75.6562 6.71093 75.5218 6.472C75.3874 6.23307 75.2045 6.0464 74.973 5.912C74.7416 5.77013 74.4728 5.6992 74.1666 5.6992C73.868 5.6992 73.5992 5.77013 73.3602 5.912C73.1288 6.0464 72.9458 6.23307 72.8114 6.472C72.6845 6.71093 72.621 6.9872 72.621 7.3008C72.621 7.6144 72.6845 7.8944 72.8114 8.1408C72.9458 8.3872 73.1288 8.58133 73.3602 8.7232C73.5992 8.8576 73.868 8.9248 74.1666 8.9248ZM80.2648 10.112C79.7794 10.112 79.3389 9.9888 78.9432 9.7424C78.5549 9.496 78.245 9.16373 78.0136 8.7456C77.7896 8.32 77.6776 7.84587 77.6776 7.3232C77.6776 6.79307 77.7896 6.31893 78.0136 5.9008C78.245 5.4752 78.5549 5.1392 78.9432 4.8928C79.3389 4.63893 79.7794 4.512 80.2648 4.512C80.6754 4.512 81.0376 4.6016 81.3512 4.7808C81.6722 4.95253 81.9261 5.19147 82.1128 5.4976C82.2994 5.80373 82.3928 6.15093 82.3928 6.5392V8.0848C82.3928 8.47307 82.2994 8.82027 82.1128 9.1264C81.9336 9.43253 81.6834 9.6752 81.3624 9.8544C81.0413 10.0261 80.6754 10.112 80.2648 10.112ZM80.4664 8.9472C80.9218 8.9472 81.2877 8.79413 81.564 8.488C81.8477 8.18187 81.9896 7.78987 81.9896 7.312C81.9896 6.99093 81.9261 6.7072 81.7992 6.4608C81.6722 6.2144 81.493 6.024 81.2616 5.8896C81.0376 5.74773 80.7725 5.6768 80.4664 5.6768C80.1677 5.6768 79.9026 5.74773 79.6712 5.8896C79.4472 6.024 79.268 6.2144 79.1336 6.4608C79.0066 6.7072 78.9432 6.99093 78.9432 7.312C78.9432 7.63307 79.0066 7.9168 79.1336 8.1632C79.268 8.4096 79.4472 8.60373 79.6712 8.7456C79.9026 8.88 80.1677 8.9472 80.4664 8.9472ZM81.9112 10V8.5552L82.124 7.2448L81.9112 5.9456V4.624H83.1432V10H81.9112ZM86.7616 10.112C86.2763 10.112 85.8358 9.9888 85.44 9.7424C85.0518 9.496 84.7419 9.16373 84.5104 8.7456C84.2864 8.32 84.1744 7.84587 84.1744 7.3232C84.1744 6.79307 84.2864 6.31893 84.5104 5.9008C84.7419 5.4752 85.0518 5.1392 85.44 4.8928C85.8358 4.63893 86.2763 4.512 86.7616 4.512C87.1723 4.512 87.5344 4.6016 87.848 4.7808C88.1691 4.95253 88.423 5.19147 88.6096 5.4976C88.7963 5.80373 88.8896 6.15093 88.8896 6.5392V8.0848C88.8896 8.47307 88.7963 8.82027 88.6096 9.1264C88.4304 9.43253 88.1803 9.6752 87.8592 9.8544C87.5382 10.0261 87.1723 10.112 86.7616 10.112ZM86.9632 8.9472C87.2694 8.9472 87.5344 8.88 87.7584 8.7456C87.9899 8.60373 88.1691 8.4096 88.296 8.1632C88.423 7.9168 88.4864 7.63307 88.4864 7.312C88.4864 6.99093 88.423 6.7072 88.296 6.4608C88.1691 6.2144 87.9899 6.024 87.7584 5.8896C87.5344 5.74773 87.2694 5.6768 86.9632 5.6768C86.6646 5.6768 86.3995 5.74773 86.168 5.8896C85.944 6.024 85.7648 6.2144 85.6304 6.4608C85.5035 6.7072 85.44 6.99093 85.44 7.312C85.44 7.63307 85.5035 7.9168 85.6304 8.1632C85.7648 8.4096 85.944 8.60373 86.168 8.7456C86.3995 8.88 86.6646 8.9472 86.9632 8.9472ZM89.64 10H88.408V8.5552L88.6208 7.2448L88.408 5.9456V1.936H89.64V10ZM95.7135 10.112C95.1908 10.112 94.7167 9.9888 94.2911 9.7424C93.8655 9.48853 93.5258 9.1488 93.2719 8.7232C93.0255 8.2976 92.9023 7.82347 92.9023 7.3008C92.9023 6.77813 93.0255 6.30773 93.2719 5.8896C93.5258 5.47147 93.8655 5.1392 94.2911 4.8928C94.7167 4.63893 95.1908 4.512 95.7135 4.512C96.2436 4.512 96.7215 4.6352 97.1471 4.8816C97.5727 5.128 97.9087 5.464 98.1551 5.8896C98.409 6.30773 98.5359 6.77813 98.5359 7.3008C98.5359 7.82347 98.409 8.2976 98.1551 8.7232C97.9087 9.1488 97.5727 9.48853 97.1471 9.7424C96.7215 9.9888 96.2436 10.112 95.7135 10.112ZM95.7135 8.9248C96.0196 8.9248 96.2884 8.8576 96.5199 8.7232C96.7588 8.58133 96.9418 8.3872 97.0687 8.1408C97.2031 7.8944 97.2703 7.6144 97.2703 7.3008C97.2703 6.9872 97.2031 6.71093 97.0687 6.472C96.9343 6.23307 96.7514 6.0464 96.5199 5.912C96.2884 5.77013 96.0196 5.6992 95.7135 5.6992C95.4148 5.6992 95.146 5.77013 94.9071 5.912C94.6756 6.0464 94.4927 6.23307 94.3583 6.472C94.2314 6.71093 94.1679 6.9872 94.1679 7.3008C94.1679 7.6144 94.2314 7.8944 94.3583 8.1408C94.4927 8.3872 94.6756 8.58133 94.9071 8.7232C95.146 8.8576 95.4148 8.9248 95.7135 8.9248ZM103.245 10V6.8976C103.245 6.5392 103.13 6.24427 102.898 6.0128C102.674 5.78133 102.383 5.6656 102.024 5.6656C101.786 5.6656 101.573 5.71787 101.386 5.8224C101.199 5.92693 101.054 6.07253 100.949 6.2592C100.845 6.44587 100.792 6.65867 100.792 6.8976L100.311 6.6288C100.311 6.21813 100.4 5.856 100.58 5.5424C100.759 5.22133 101.005 4.9712 101.319 4.792C101.64 4.60533 101.998 4.512 102.394 4.512C102.797 4.512 103.156 4.61653 103.469 4.8256C103.783 5.0272 104.029 5.29227 104.208 5.6208C104.388 5.94187 104.477 6.27787 104.477 6.6288V10H103.245ZM99.5604 10V4.624H100.792V10H99.5604ZM108.789 10V2.384H110.021V10H108.789ZM107.501 5.744V4.624H111.309V5.744H107.501ZM115.889 10V6.8976C115.889 6.5392 115.773 6.24427 115.542 6.0128C115.318 5.78133 115.027 5.6656 114.668 5.6656C114.429 5.6656 114.216 5.71787 114.03 5.8224C113.843 5.92693 113.698 6.07253 113.593 6.2592C113.488 6.44587 113.436 6.65867 113.436 6.8976L112.955 6.6288C112.955 6.21813 113.044 5.856 113.223 5.5424C113.403 5.22133 113.649 4.9712 113.963 4.792C114.284 4.60533 114.642 4.512 115.038 4.512C115.441 4.512 115.799 4.6016 116.113 4.7808C116.427 4.96 116.673 5.21013 116.852 5.5312C117.031 5.8448 117.121 6.21067 117.121 6.6288V10H115.889ZM112.204 10V1.936H113.436V10H112.204ZM120.871 10.112C120.333 10.112 119.848 9.99253 119.415 9.7536C118.989 9.5072 118.649 9.1712 118.395 8.7456C118.149 8.32 118.026 7.84213 118.026 7.312C118.026 6.78187 118.149 6.30773 118.395 5.8896C118.642 5.464 118.974 5.128 119.392 4.8816C119.818 4.6352 120.288 4.512 120.803 4.512C121.304 4.512 121.744 4.62773 122.125 4.8592C122.513 5.09067 122.816 5.408 123.032 5.8112C123.256 6.2144 123.368 6.6736 123.368 7.1888C123.368 7.2784 123.361 7.37173 123.346 7.4688C123.338 7.5584 123.323 7.6592 123.301 7.7712H118.888V6.7632H122.663L122.203 7.1664C122.188 6.83787 122.125 6.5616 122.013 6.3376C121.901 6.1136 121.74 5.94187 121.531 5.8224C121.33 5.70293 121.08 5.6432 120.781 5.6432C120.467 5.6432 120.195 5.7104 119.963 5.8448C119.732 5.9792 119.553 6.1696 119.426 6.416C119.299 6.65493 119.235 6.9424 119.235 7.2784C119.235 7.6144 119.303 7.90933 119.437 8.1632C119.571 8.41707 119.762 8.61493 120.008 8.7568C120.255 8.8912 120.538 8.9584 120.859 8.9584C121.136 8.9584 121.389 8.90987 121.621 8.8128C121.86 8.71573 122.061 8.57387 122.226 8.3872L123.01 9.1824C122.748 9.48853 122.431 9.72 122.058 9.8768C121.684 10.0336 121.289 10.112 120.871 10.112Z" fill="black"/>
<path d="M39.7815 32L46.1207 16.2528H48.6071L54.9239 32H51.6759L46.7927 19.0752H47.9127L42.9623 32H39.7815ZM43.1415 29.0656V26.512H51.6087V29.0656H43.1415ZM61.9904 32.224C61.2139 32.224 60.512 32.0672 59.8848 31.7536C59.2576 31.4251 58.7573 30.9845 58.384 30.432C58.0107 29.8795 57.8091 29.2448 57.7792 28.528V24.6976C57.8091 23.9808 58.0107 23.3461 58.384 22.7936C58.7723 22.2261 59.2725 21.7781 59.8848 21.4496C60.512 21.1211 61.2139 20.9568 61.9904 20.9568C62.9909 20.9568 63.8869 21.2032 64.6784 21.696C65.4699 22.1888 66.0896 22.8608 66.5376 23.712C67.0005 24.5632 67.232 25.5264 67.232 26.6016C67.232 27.6619 67.0005 28.6176 66.5376 29.4688C66.0896 30.32 65.4699 30.992 64.6784 31.4848C63.8869 31.9776 62.9909 32.224 61.9904 32.224ZM55.9872 36.5248V21.1808H58.9216V24.0256L58.4288 26.6464L58.8992 29.2672V36.5248H55.9872ZM61.4752 29.5136C62.0128 29.5136 62.4907 29.3941 62.9088 29.1552C63.3269 28.9013 63.648 28.5579 63.872 28.1248C64.1109 27.6768 64.2304 27.1616 64.2304 26.5792C64.2304 26.0117 64.1109 25.5115 63.872 25.0784C63.648 24.6304 63.3269 24.2869 62.9088 24.048C62.4907 23.7941 62.0128 23.6672 61.4752 23.6672C60.9525 23.6672 60.4821 23.7941 60.064 24.048C59.6459 24.2869 59.3173 24.6304 59.0784 25.0784C58.8544 25.5115 58.7424 26.0117 58.7424 26.5792C58.7424 27.1616 58.8544 27.6768 59.0784 28.1248C59.3173 28.5579 59.6384 28.9013 60.0416 29.1552C60.4597 29.3941 60.9376 29.5136 61.4752 29.5136ZM74.5011 32.224C73.7246 32.224 73.0227 32.0672 72.3955 31.7536C71.7683 31.4251 71.2681 30.9845 70.8947 30.432C70.5214 29.8795 70.3198 29.2448 70.2899 28.528V24.6976C70.3198 23.9808 70.5214 23.3461 70.8947 22.7936C71.283 22.2261 71.7833 21.7781 72.3955 21.4496C73.0227 21.1211 73.7246 20.9568 74.5011 20.9568C75.5017 20.9568 76.3977 21.2032 77.1891 21.696C77.9806 22.1888 78.6003 22.8608 79.0483 23.712C79.5113 24.5632 79.7427 25.5264 79.7427 26.6016C79.7427 27.6619 79.5113 28.6176 79.0483 29.4688C78.6003 30.32 77.9806 30.992 77.1891 31.4848C76.3977 31.9776 75.5017 32.224 74.5011 32.224ZM68.4979 36.5248V21.1808H71.4323V24.0256L70.9395 26.6464L71.4099 29.2672V36.5248H68.4979ZM73.9859 29.5136C74.5235 29.5136 75.0014 29.3941 75.4195 29.1552C75.8377 28.9013 76.1587 28.5579 76.3827 28.1248C76.6217 27.6768 76.7411 27.1616 76.7411 26.5792C76.7411 26.0117 76.6217 25.5115 76.3827 25.0784C76.1587 24.6304 75.8377 24.2869 75.4195 24.048C75.0014 23.7941 74.5235 23.6672 73.9859 23.6672C73.4633 23.6672 72.9929 23.7941 72.5747 24.048C72.1566 24.2869 71.8281 24.6304 71.5891 25.0784C71.3651 25.5115 71.2531 26.0117 71.2531 26.5792C71.2531 27.1616 71.3651 27.6768 71.5891 28.1248C71.8281 28.5579 72.1491 28.9013 72.5523 29.1552C72.9705 29.3941 73.4483 29.5136 73.9859 29.5136ZM89.6089 32.224C88.3396 32.224 87.2494 32.0075 86.3385 31.5744C85.4425 31.1413 84.6286 30.4917 83.8969 29.6256L85.9129 27.6096C86.3758 28.2219 86.9134 28.6997 87.5257 29.0432C88.138 29.3717 88.8846 29.536 89.7657 29.536C90.5572 29.536 91.1844 29.3792 91.6473 29.0656C92.1252 28.752 92.3641 28.3189 92.3641 27.7664C92.3641 27.2885 92.2297 26.9003 91.9609 26.6016C91.6921 26.3029 91.3337 26.0491 90.8857 25.84C90.4526 25.6309 89.9673 25.4443 89.4297 25.28C88.907 25.1008 88.3769 24.8992 87.8393 24.6752C87.3166 24.4512 86.8313 24.1749 86.3833 23.8464C85.9502 23.5029 85.5993 23.0699 85.3305 22.5472C85.0617 22.0096 84.9273 21.3376 84.9273 20.5312C84.9273 19.5755 85.1588 18.7616 85.6217 18.0896C86.0846 17.4176 86.7193 16.9024 87.5257 16.544C88.3321 16.1856 89.243 16.0064 90.2585 16.0064C91.3337 16.0064 92.3044 16.208 93.1705 16.6112C94.0366 17.0144 94.746 17.5371 95.2985 18.1792L93.2825 20.1952C92.8196 19.6875 92.3417 19.3141 91.8489 19.0752C91.371 18.8363 90.826 18.7168 90.2137 18.7168C89.5118 18.7168 88.9593 18.8512 88.5561 19.12C88.1529 19.3888 87.9513 19.7771 87.9513 20.2848C87.9513 20.7179 88.0857 21.0688 88.3545 21.3376C88.6233 21.6064 88.9742 21.8379 89.4073 22.032C89.8553 22.2261 90.3406 22.4128 90.8633 22.592C91.4009 22.7712 91.931 22.9728 92.4537 23.1968C92.9913 23.4208 93.4766 23.712 93.9097 24.0704C94.3577 24.4288 94.7161 24.8917 94.9849 25.4592C95.2537 26.0117 95.3881 26.6987 95.3881 27.52C95.3881 28.9835 94.8729 30.1333 93.8425 30.9696C92.8121 31.8059 91.4009 32.224 89.6089 32.224ZM98.4112 32V16.6784H101.346V32H98.4112ZM95.88 23.7568V21.1808H103.877V23.7568H95.88ZM109.691 32.224C108.601 32.224 107.616 31.9776 106.735 31.4848C105.868 30.9771 105.174 30.2976 104.651 29.4464C104.144 28.5803 103.89 27.6171 103.89 26.5568C103.89 25.4965 104.144 24.5483 104.651 23.712C105.159 22.8608 105.854 22.1888 106.735 21.696C107.616 21.1883 108.594 20.9344 109.669 20.9344C110.774 20.9344 111.76 21.1883 112.626 21.696C113.507 22.1888 114.201 22.8608 114.709 23.712C115.217 24.5483 115.471 25.4965 115.471 26.5568C115.471 27.6171 115.217 28.5803 114.709 29.4464C114.201 30.2976 113.507 30.9771 112.626 31.4848C111.76 31.9776 110.782 32.224 109.691 32.224ZM109.669 29.4912C110.222 29.4912 110.707 29.3717 111.125 29.1328C111.558 28.8789 111.887 28.5355 112.111 28.1024C112.35 27.6544 112.469 27.1467 112.469 26.5792C112.469 26.0117 112.35 25.5115 112.111 25.0784C111.872 24.6453 111.543 24.3093 111.125 24.0704C110.707 23.8165 110.222 23.6896 109.669 23.6896C109.131 23.6896 108.654 23.8165 108.235 24.0704C107.817 24.3093 107.489 24.6453 107.25 25.0784C107.011 25.5115 106.891 26.0117 106.891 26.5792C106.891 27.1467 107.011 27.6544 107.25 28.1024C107.489 28.5355 107.817 28.8789 108.235 29.1328C108.654 29.3717 109.131 29.4912 109.669 29.4912ZM116.702 32V21.1808H119.636V32H116.702ZM119.636 26.0192L118.494 25.2576C118.628 23.9285 119.016 22.8832 119.658 22.1216C120.301 21.3451 121.226 20.9568 122.436 20.9568C122.959 20.9568 123.429 21.0464 123.847 21.2256C124.265 21.3899 124.646 21.6661 124.99 22.0544L123.153 24.16C122.989 23.9808 122.787 23.8464 122.548 23.7568C122.324 23.6672 122.063 23.6224 121.764 23.6224C121.137 23.6224 120.622 23.824 120.218 24.2272C119.83 24.6155 119.636 25.2128 119.636 26.0192ZM130.231 32.224C129.096 32.224 128.088 31.9851 127.207 31.5072C126.326 31.0144 125.624 30.3424 125.101 29.4912C124.593 28.64 124.339 27.6693 124.339 26.5792C124.339 25.504 124.586 24.5483 125.079 23.712C125.586 22.8608 126.273 22.1888 127.139 21.696C128.006 21.1883 128.969 20.9344 130.029 20.9344C131.074 20.9344 131.993 21.1733 132.784 21.6512C133.591 22.1141 134.218 22.7563 134.666 23.5776C135.129 24.384 135.36 25.3024 135.36 26.3328C135.36 26.5269 135.345 26.7285 135.315 26.9376C135.3 27.1317 135.263 27.3557 135.203 27.6096L126.109 27.632V25.4368L133.837 25.4144L132.65 26.3328C132.62 25.6907 132.5 25.1531 132.291 24.72C132.097 24.2869 131.806 23.9584 131.418 23.7344C131.044 23.4955 130.582 23.376 130.029 23.376C129.447 23.376 128.939 23.5104 128.506 23.7792C128.073 24.0331 127.737 24.3989 127.498 24.8768C127.274 25.3397 127.162 25.8923 127.162 26.5344C127.162 27.1915 127.281 27.7664 127.52 28.2592C127.774 28.7371 128.132 29.1104 128.595 29.3792C129.058 29.6331 129.596 29.76 130.208 29.76C130.761 29.76 131.261 29.6704 131.709 29.4912C132.157 29.2971 132.545 29.0133 132.874 28.64L134.599 30.3648C134.076 30.9771 133.434 31.44 132.672 31.7536C131.926 32.0672 131.112 32.224 130.231 32.224Z" fill="black"/>
</svg>
